<svg width="87" height="20" viewBox="0 0 87 20" fill="none" xmlns="http://www.w3.org/2000/svg">
<g opacity="0.4">
<mask id="mask0_12146_11139" style="mask-type:alpha" maskUnits="userSpaceOnUse" x="0" y="0" width="20" height="20">
<rect width="20" height="20" fill="#AAAAAA"/>
</mask>
<g mask="url(#mask0_12146_11139)">
<mask id="mask1_12146_11139" style="mask-type:alpha" maskUnits="userSpaceOnUse" x="0" y="1" width="20" height="17">
<path d="M10.0145 1.64453L19.0439 17.2838H0.985221L10.0145 1.64453Z" fill="#959595"/>
</mask>
<g mask="url(#mask1_12146_11139)">
<rect x="9.25635" y="2.85742" width="1.7322" height="17.2714" transform="rotate(30 9.25635 2.85742)" fill="white"/>
<rect width="1.7322" height="17.1703" transform="matrix(-0.866025 0.5 0.5 0.866025 10.7352 2.88477)" fill="white"/>
<rect x="9.29199" y="2.88281" width="1.44521" height="1.34198" fill="white"/>
<mask id="mask2_12146_11139" style="mask-type:alpha" maskUnits="userSpaceOnUse" x="4" y="11" width="8" height="7">
<path d="M8.15648 11.4512L11.5537 17.3352H4.75931L8.15648 11.4512Z" fill="#AFAFAF"/>
</mask>
<g mask="url(#mask2_12146_11139)">
<rect x="9.09363" y="6.7168" width="1.7322" height="12.8167" transform="rotate(30 9.09363 6.7168)" fill="white"/>
<rect width="1.7322" height="7.64428" transform="matrix(-0.866025 0.5 0.5 0.866025 8.1322 11.3184)" fill="white"/>
<rect x="8.24695" y="11.1895" width="1.7322" height="7.79291" transform="rotate(30 8.24695 11.1895)" fill="white"/>
</g>
<path d="M10.0121 8.20508L9.00574 9.94236L9.02928 9.98085L9.07635 10.0578L9.17051 10.2118L9.86147 11.4086L11.2434 13.8021L14.0072 18.5892L15.5073 17.7231L12.7435 12.936L11.3616 10.5425L10.6706 9.34573L10.3252 8.74735L10.1524 8.44815L10.0661 8.29856L10.0229 8.22376L10.0121 8.20508Z" fill="white"/>
</g>
</g>
<path d="M84.3425 12.5854C84.3425 12.3654 84.3083 12.1698 84.2398 11.9987C84.1763 11.8276 84.0614 11.6712 83.8952 11.5294C83.7289 11.3877 83.4943 11.2508 83.1912 11.1188C82.893 10.9819 82.5117 10.8426 82.0472 10.7008C81.5388 10.5444 81.0695 10.3708 80.6393 10.1802C80.214 9.98461 79.8424 9.75973 79.5247 9.50551C79.2069 9.24641 78.96 8.95065 78.784 8.61822C78.608 8.2809 78.52 7.89225 78.52 7.45227C78.52 7.01717 78.6105 6.62119 78.7914 6.26431C78.9771 5.90744 79.2387 5.59945 79.576 5.34035C79.9182 5.07636 80.3215 4.87348 80.786 4.73171C81.2504 4.58505 81.7637 4.51172 82.3259 4.51172C83.1179 4.51172 83.7998 4.65838 84.3718 4.9517C84.9487 5.24502 85.3911 5.63856 85.6991 6.13232C86.012 6.62608 86.1684 7.17117 86.1684 7.76759H84.3425C84.3425 7.4156 84.2667 7.10517 84.1152 6.83629C83.9685 6.56252 83.7436 6.34742 83.4405 6.19098C83.1423 6.03455 82.7634 5.95633 82.3039 5.95633C81.8688 5.95633 81.507 6.02232 81.2186 6.15432C80.9302 6.28631 80.7151 6.46475 80.5733 6.68963C80.4315 6.91451 80.3606 7.16872 80.3606 7.45227C80.3606 7.6527 80.4071 7.83603 80.5 8.00224C80.5929 8.16357 80.7346 8.31512 80.9253 8.45689C81.1159 8.59377 81.3555 8.72332 81.6439 8.84554C81.9324 8.96776 82.2721 9.08509 82.6632 9.19753C83.2547 9.37352 83.7705 9.56907 84.2105 9.78417C84.6505 9.99438 85.0171 10.2339 85.3104 10.5028C85.6038 10.7717 85.8238 11.0772 85.9704 11.4194C86.1171 11.7568 86.1904 12.1405 86.1904 12.5707C86.1904 13.0205 86.1 13.4262 85.9191 13.788C85.7382 14.1449 85.4791 14.4504 85.1418 14.7046C84.8093 14.954 84.4085 15.1471 83.9392 15.2839C83.4747 15.4159 82.9565 15.4819 82.3846 15.4819C81.8712 15.4819 81.3653 15.4135 80.8666 15.2766C80.3729 15.1397 79.9231 14.932 79.5173 14.6533C79.1116 14.3698 78.7889 14.0178 78.5494 13.5973C78.3098 13.172 78.1901 12.6758 78.1901 12.1087H80.0307C80.0307 12.4558 80.0893 12.7516 80.2066 12.996C80.3289 13.2405 80.4975 13.4409 80.7126 13.5973C80.9277 13.7489 81.1771 13.8613 81.4606 13.9347C81.749 14.008 82.057 14.0447 82.3846 14.0447C82.8148 14.0447 83.1741 13.9836 83.4625 13.8613C83.7558 13.7391 83.9758 13.568 84.1225 13.348C84.2691 13.128 84.3425 12.8738 84.3425 12.5854Z" fill="white"/>
<path d="M76.4375 4.6582V15.3351H74.5969V4.6582H76.4375Z" fill="white"/>
<path d="M62.0795 4.6582H63.7221L66.8093 12.8932L69.8892 4.6582H71.5318L67.4546 15.3351H66.1493L62.0795 4.6582ZM61.3315 4.6582H62.8935L63.1648 11.7859V15.3351H61.3315V4.6582ZM70.7178 4.6582H72.2871V15.3351H70.4465V11.7859L70.7178 4.6582Z" fill="white"/>
<path d="M59.8282 13.8758V15.3351H54.1598V13.8758H59.8282ZM54.6804 4.6582V15.3351H52.8398V4.6582H54.6804ZM59.0876 9.11669V10.554H54.1598V9.11669H59.0876ZM59.7916 4.6582V6.12481H54.1598V4.6582H59.7916Z" fill="white"/>
<path d="M48.0807 4.6582V15.3351H46.2547V4.6582H48.0807ZM51.4318 4.6582V6.12481H42.9329V4.6582H51.4318Z" fill="white"/>
<path d="M34.7272 4.6582H38.5037C39.3152 4.6582 40.007 4.78042 40.5789 5.02485C41.1509 5.26929 41.5884 5.63105 41.8915 6.11014C42.1995 6.58435 42.3535 7.17099 42.3535 7.87007C42.3535 8.40294 42.2558 8.87225 42.0602 9.27801C41.8647 9.68377 41.5884 10.026 41.2316 10.3046C40.8747 10.5784 40.4494 10.7911 39.9556 10.9426L39.3983 11.2139H36.0031L35.9885 9.75466H38.533C38.973 9.75466 39.3397 9.67644 39.633 9.52C39.9263 9.36357 40.1463 9.15091 40.2929 8.88203C40.4445 8.60826 40.5203 8.30028 40.5203 7.95807C40.5203 7.58653 40.4469 7.26387 40.3003 6.99011C40.1585 6.71145 39.9385 6.49879 39.6403 6.35213C39.3421 6.20058 38.9632 6.12481 38.5037 6.12481H36.5678V15.3351H34.7272V4.6582ZM40.8209 15.3351L38.313 10.5393L40.2416 10.532L42.7862 15.2398V15.3351H40.8209Z" fill="white"/>
<path d="M28.9268 6.08081L25.7369 15.3351H23.8083L27.8269 4.6582H29.0588L28.9268 6.08081ZM31.596 15.3351L28.3988 6.08081L28.2595 4.6582H29.4988L33.532 15.3351H31.596ZM31.442 11.3753V12.8345H25.6343V11.3753H31.442Z" fill="white"/>
</g>
</svg>
