<svg width="129" height="24" viewBox="0 0 129 24" fill="none" xmlns="http://www.w3.org/2000/svg">
<path d="M38.946 15.606H33.942L33.114 18H30.468L34.986 5.418H37.92L42.438 18H39.774L38.946 15.606ZM38.262 13.59L36.444 8.334L34.626 13.59H38.262ZM46.6468 9.576C46.9708 9.048 47.3908 8.634 47.9068 8.334C48.4348 8.034 49.0348 7.884 49.7068 7.884V10.53H49.0408C48.2488 10.53 47.6488 10.716 47.2408 11.088C46.8448 11.46 46.6468 12.108 46.6468 13.032V18H44.1268V8.028H46.6468V9.576ZM54.3381 10.098V14.922C54.3381 15.258 54.4161 15.504 54.5721 15.66C54.7401 15.804 55.0161 15.876 55.4001 15.876H56.5701V18H54.9861C52.8621 18 51.8001 16.968 51.8001 14.904V10.098H50.6121V8.028H51.8001V5.562H54.3381V8.028H56.5701V10.098H54.3381ZM67.6526 12.798C67.6526 13.158 67.6286 13.482 67.5806 13.77H60.2906C60.3506 14.49 60.6026 15.054 61.0466 15.462C61.4906 15.87 62.0366 16.074 62.6846 16.074C63.6206 16.074 64.2866 15.672 64.6826 14.868H67.4006C67.1126 15.828 66.5606 16.62 65.7446 17.244C64.9286 17.856 63.9266 18.162 62.7386 18.162C61.7786 18.162 60.9146 17.952 60.1466 17.532C59.3906 17.1 58.7966 16.494 58.3646 15.714C57.9446 14.934 57.7346 14.034 57.7346 13.014C57.7346 11.982 57.9446 11.076 58.3646 10.296C58.7846 9.516 59.3726 8.916 60.1286 8.496C60.8846 8.076 61.7546 7.866 62.7386 7.866C63.6866 7.866 64.5326 8.07 65.2766 8.478C66.0326 8.886 66.6146 9.468 67.0226 10.224C67.4426 10.968 67.6526 11.826 67.6526 12.798ZM65.0426 12.078C65.0306 11.43 64.7966 10.914 64.3406 10.53C63.8846 10.134 63.3266 9.936 62.6666 9.936C62.0426 9.936 61.5146 10.128 61.0826 10.512C60.6626 10.884 60.4046 11.406 60.3086 12.078H65.0426ZM75 18L72.948 14.904L71.13 18H68.43L71.688 12.996L68.394 8.028H71.238L73.272 11.106L75.108 8.028H77.808L74.532 12.996L77.844 18H75ZM83.5507 18.126C82.6747 18.126 81.8827 17.976 81.1747 17.676C80.4787 17.376 79.9267 16.944 79.5187 16.38C79.1107 15.816 78.9007 15.15 78.8887 14.382H81.5887C81.6247 14.898 81.8047 15.306 82.1287 15.606C82.4647 15.906 82.9207 16.056 83.4967 16.056C84.0847 16.056 84.5467 15.918 84.8827 15.642C85.2187 15.354 85.3867 14.982 85.3867 14.526C85.3867 14.154 85.2727 13.848 85.0447 13.608C84.8167 13.368 84.5287 13.182 84.1807 13.05C83.8447 12.906 83.3767 12.75 82.7767 12.582C81.9607 12.342 81.2947 12.108 80.7787 11.88C80.2747 11.64 79.8367 11.286 79.4647 10.818C79.1047 10.338 78.9247 9.702 78.9247 8.91C78.9247 8.166 79.1107 7.518 79.4827 6.966C79.8547 6.414 80.3767 5.994 81.0487 5.706C81.7207 5.406 82.4887 5.256 83.3527 5.256C84.6487 5.256 85.6987 5.574 86.5027 6.21C87.3187 6.834 87.7687 7.71 87.8527 8.838H85.0807C85.0567 8.406 84.8707 8.052 84.5227 7.776C84.1867 7.488 83.7367 7.344 83.1727 7.344C82.6807 7.344 82.2847 7.47 81.9847 7.722C81.6967 7.974 81.5527 8.34 81.5527 8.82C81.5527 9.156 81.6607 9.438 81.8767 9.666C82.1047 9.882 82.3807 10.062 82.7047 10.206C83.0407 10.338 83.5087 10.494 84.1087 10.674C84.9247 10.914 85.5907 11.154 86.1067 11.394C86.6227 11.634 87.0667 11.994 87.4387 12.474C87.8107 12.954 87.9967 13.584 87.9967 14.364C87.9967 15.036 87.8227 15.66 87.4747 16.236C87.1267 16.812 86.6167 17.274 85.9447 17.622C85.2727 17.958 84.4747 18.126 83.5507 18.126ZM104.005 8.028L101.089 18H98.3715L96.5535 11.034L94.7355 18H91.9995L89.0655 8.028H91.6215L93.3855 15.624L95.2935 8.028H97.9575L99.8295 15.606L101.593 8.028H104.005ZM104.721 12.978C104.721 11.97 104.919 11.076 105.315 10.296C105.723 9.516 106.269 8.916 106.953 8.496C107.649 8.076 108.423 7.866 109.275 7.866C110.019 7.866 110.667 8.016 111.219 8.316C111.783 8.616 112.233 8.994 112.569 9.45V8.028H115.107V18H112.569V16.542C112.245 17.01 111.795 17.4 111.219 17.712C110.655 18.012 110.001 18.162 109.257 18.162C108.417 18.162 107.649 17.946 106.953 17.514C106.269 17.082 105.723 16.476 105.315 15.696C104.919 14.904 104.721 13.998 104.721 12.978ZM112.569 13.014C112.569 12.402 112.449 11.88 112.209 11.448C111.969 11.004 111.645 10.668 111.237 10.44C110.829 10.2 110.391 10.08 109.923 10.08C109.455 10.08 109.023 10.194 108.627 10.422C108.231 10.65 107.907 10.986 107.655 11.43C107.415 11.862 107.295 12.378 107.295 12.978C107.295 13.578 107.415 14.106 107.655 14.562C107.907 15.006 108.231 15.348 108.627 15.588C109.035 15.828 109.467 15.948 109.923 15.948C110.391 15.948 110.829 15.834 111.237 15.606C111.645 15.366 111.969 15.03 112.209 14.598C112.449 14.154 112.569 13.626 112.569 13.014ZM120.088 9.468C120.412 9.012 120.856 8.634 121.42 8.334C121.996 8.022 122.65 7.866 123.382 7.866C124.234 7.866 125.002 8.076 125.686 8.496C126.382 8.916 126.928 9.516 127.324 10.296C127.732 11.064 127.936 11.958 127.936 12.978C127.936 13.998 127.732 14.904 127.324 15.696C126.928 16.476 126.382 17.082 125.686 17.514C125.002 17.946 124.234 18.162 123.382 18.162C122.65 18.162 122.002 18.012 121.438 17.712C120.886 17.412 120.436 17.034 120.088 16.578V22.752H117.568V8.028H120.088V9.468ZM125.362 12.978C125.362 12.378 125.236 11.862 124.984 11.43C124.744 10.986 124.42 10.65 124.012 10.422C123.616 10.194 123.184 10.08 122.716 10.08C122.26 10.08 121.828 10.2 121.42 10.44C121.024 10.668 120.7 11.004 120.448 11.448C120.208 11.892 120.088 12.414 120.088 13.014C120.088 13.614 120.208 14.136 120.448 14.58C120.7 15.024 121.024 15.366 121.42 15.606C121.828 15.834 122.26 15.948 122.716 15.948C123.184 15.948 123.616 15.828 124.012 15.588C124.42 15.348 124.744 15.006 124.984 14.562C125.236 14.118 125.362 13.59 125.362 12.978Z" fill="white"/>
<path fill-rule="evenodd" clip-rule="evenodd" d="M20.0377 3.089C18.4323 1.63991 16.4333 0.618542 14.2205 0.204538C14.1781 2.6836 13.3687 5.09062 11.9011 7.09316C10.393 9.15086 8.26834 10.6744 5.83557 11.4426C3.9413 12.0407 1.93697 12.1567 0.001753 11.7923C0.000585896 11.8612 0 11.9303 0 11.9995C0 14.2151 0.600466 16.2905 1.64753 18.0718C3.67388 18.1362 5.70931 17.8598 7.66675 17.2417C11.3324 16.0842 14.5338 13.7886 16.8062 10.6881C18.4633 8.42704 19.5635 5.82375 20.0377 3.089ZM21.9646 5.31104C21.3122 7.73593 20.2146 10.0349 18.7121 12.085C16.1428 15.5907 12.523 18.1863 8.37829 19.4951C6.76577 20.0043 5.10644 20.3084 3.43837 20.4078C5.6157 22.6245 8.64728 23.9995 12 23.9995C18.6274 23.9995 24 18.6269 24 11.9995C24 9.52323 23.2499 7.22215 21.9646 5.31104ZM5.13336 9.21874C3.55307 9.71775 1.87772 9.80021 0.267555 9.4678C1.42235 4.09062 6.18003 0.0511979 11.8902 0C11.8901 2.05521 11.235 4.05691 10.0201 5.71459C8.80509 7.3724 7.09335 8.59984 5.13336 9.21874Z" fill="url(#paint0_linear_17604_1960)"/>
<defs>
<linearGradient id="paint0_linear_17604_1960" x1="12" y1="0" x2="12" y2="23.9995" gradientUnits="userSpaceOnUse">
<stop stop-color="#3655FD"/>
<stop offset="1" stop-color="#342FEE"/>
</linearGradient>
</defs>
</svg>
