<svg width="126" height="24" viewBox="0 0 126 24" fill="none" xmlns="http://www.w3.org/2000/svg">
<path d="M38.892 15.444H33.654L32.754 18H30.612L35.094 5.472H37.47L41.952 18H39.792L38.892 15.444ZM38.316 13.77L36.282 7.956L34.23 13.77H38.316ZM45.9528 9.522C46.2528 9.018 46.6488 8.628 47.1408 8.352C47.6448 8.064 48.2388 7.92 48.9228 7.92V10.044H48.4008C47.5968 10.044 46.9848 10.248 46.5648 10.656C46.1568 11.064 45.9528 11.772 45.9528 12.78V18H43.9008V8.082H45.9528V9.522ZM53.203 9.756V15.246C53.203 15.618 53.287 15.888 53.455 16.056C53.635 16.212 53.935 16.29 54.355 16.29H55.615V18H53.995C53.071 18 52.363 17.784 51.871 17.352C51.379 16.92 51.133 16.218 51.133 15.246V9.756H49.963V8.082H51.133V5.616H53.203V8.082H55.615V9.756H53.203ZM66.5963 12.798C66.5963 13.17 66.5723 13.506 66.5243 13.806H58.9463C59.0063 14.598 59.3003 15.234 59.8283 15.714C60.3563 16.194 61.0043 16.434 61.7723 16.434C62.8763 16.434 63.6563 15.972 64.1123 15.048H66.3262C66.0263 15.96 65.4803 16.71 64.6883 17.298C63.9083 17.874 62.9363 18.162 61.7723 18.162C60.8243 18.162 59.9723 17.952 59.2163 17.532C58.4723 17.1 57.8843 16.5 57.4523 15.732C57.0323 14.952 56.8223 14.052 56.8223 13.032C56.8223 12.012 57.0263 11.118 57.4343 10.35C57.8543 9.57 58.4363 8.97 59.1803 8.55C59.9363 8.13 60.8003 7.92 61.7723 7.92C62.7083 7.92 63.5423 8.124 64.2743 8.532C65.0063 8.94 65.5763 9.516 65.9843 10.26C66.3923 10.992 66.5963 11.838 66.5963 12.798ZM64.4543 12.15C64.4423 11.394 64.1723 10.788 63.6443 10.332C63.1163 9.876 62.4623 9.648 61.6823 9.648C60.9743 9.648 60.3683 9.876 59.8643 10.332C59.3603 10.776 59.0603 11.382 58.9643 12.15H64.4543ZM72.8636 12.978L76.0676 18H73.7456L71.6036 14.634L69.5876 18H67.4456L70.6496 13.122L67.4456 8.082H69.7676L71.9096 11.448L73.9256 8.082H76.0676L72.8636 12.978ZM81.198 18.162C80.418 18.162 79.716 18.024 79.092 17.748C78.48 17.46 77.994 17.076 77.634 16.596C77.274 16.104 77.082 15.558 77.058 14.958H79.182C79.218 15.378 79.416 15.732 79.776 16.02C80.148 16.296 80.61 16.434 81.162 16.434C81.738 16.434 82.182 16.326 82.494 16.11C82.818 15.882 82.98 15.594 82.98 15.246C82.98 14.874 82.8 14.598 82.44 14.418C82.092 14.238 81.534 14.04 80.766 13.824C80.022 13.62 79.416 13.422 78.948 13.23C78.48 13.038 78.072 12.744 77.724 12.348C77.388 11.952 77.22 11.43 77.22 10.782C77.22 10.254 77.376 9.774 77.688 9.342C78 8.898 78.444 8.55 79.02 8.298C79.608 8.046 80.28 7.92 81.036 7.92C82.164 7.92 83.07 8.208 83.754 8.784C84.45 9.348 84.822 10.122 84.87 11.106H82.818C82.782 10.662 82.602 10.308 82.278 10.044C81.954 9.78 81.516 9.648 80.964 9.648C80.424 9.648 80.01 9.75 79.722 9.954C79.434 10.158 79.29 10.428 79.29 10.764C79.29 11.028 79.386 11.25 79.578 11.43C79.77 11.61 80.004 11.754 80.28 11.862C80.556 11.958 80.964 12.084 81.504 12.24C82.224 12.432 82.812 12.63 83.268 12.834C83.736 13.026 84.138 13.314 84.474 13.698C84.81 14.082 84.984 14.592 84.996 15.228C84.996 15.792 84.84 16.296 84.528 16.74C84.216 17.184 83.772 17.532 83.196 17.784C82.632 18.036 81.966 18.162 81.198 18.162ZM100.533 8.082L97.4553 18H95.2953L93.2973 10.674L91.2993 18H89.1393L86.0433 8.082H88.1313L90.2013 16.056L92.3073 8.082H94.4493L96.4653 16.02L98.5173 8.082H100.533ZM101.383 12.996C101.383 12 101.587 11.118 101.995 10.35C102.415 9.582 102.979 8.988 103.687 8.568C104.407 8.136 105.199 7.92 106.063 7.92C106.843 7.92 107.521 8.076 108.097 8.388C108.685 8.688 109.153 9.066 109.501 9.522V8.082H111.571V18H109.501V16.524C109.153 16.992 108.679 17.382 108.079 17.694C107.479 18.006 106.795 18.162 106.027 18.162C105.175 18.162 104.395 17.946 103.687 17.514C102.979 17.07 102.415 16.458 101.995 15.678C101.587 14.886 101.383 13.992 101.383 12.996ZM109.501 13.032C109.501 12.348 109.357 11.754 109.069 11.25C108.793 10.746 108.427 10.362 107.971 10.098C107.515 9.834 107.023 9.702 106.495 9.702C105.967 9.702 105.475 9.834 105.019 10.098C104.563 10.35 104.191 10.728 103.903 11.232C103.627 11.724 103.489 12.312 103.489 12.996C103.489 13.68 103.627 14.28 103.903 14.796C104.191 15.312 104.563 15.708 105.019 15.984C105.487 16.248 105.979 16.38 106.495 16.38C107.023 16.38 107.515 16.248 107.971 15.984C108.427 15.72 108.793 15.336 109.069 14.832C109.357 14.316 109.501 13.716 109.501 13.032ZM116.318 9.54C116.666 9.084 117.14 8.7 117.74 8.388C118.34 8.076 119.018 7.92 119.774 7.92C120.638 7.92 121.424 8.136 122.132 8.568C122.852 8.988 123.416 9.582 123.824 10.35C124.232 11.118 124.436 12 124.436 12.996C124.436 13.992 124.232 14.886 123.824 15.678C123.416 16.458 122.852 17.07 122.132 17.514C121.424 17.946 120.638 18.162 119.774 18.162C119.018 18.162 118.346 18.012 117.758 17.712C117.17 17.4 116.69 17.016 116.318 16.56V22.716H114.266V8.082H116.318V9.54ZM122.348 12.996C122.348 12.312 122.204 11.724 121.916 11.232C121.64 10.728 121.268 10.35 120.8 10.098C120.344 9.834 119.852 9.702 119.324 9.702C118.808 9.702 118.316 9.834 117.848 10.098C117.392 10.362 117.02 10.746 116.732 11.25C116.456 11.754 116.318 12.348 116.318 13.032C116.318 13.716 116.456 14.316 116.732 14.832C117.02 15.336 117.392 15.72 117.848 15.984C118.316 16.248 118.808 16.38 119.324 16.38C119.852 16.38 120.344 16.248 120.8 15.984C121.268 15.708 121.64 15.312 121.916 14.796C122.204 14.28 122.348 13.68 122.348 12.996Z" fill="white"/>
<path fill-rule="evenodd" clip-rule="evenodd" d="M20.0377 3.08901C18.4323 1.63991 16.4333 0.618542 14.2205 0.204538C14.1781 2.6836 13.3687 5.09062 11.9011 7.09316C10.393 9.15086 8.26834 10.6744 5.83557 11.4426C3.9413 12.0407 1.93697 12.1567 0.001753 11.7923C0.000585896 11.8612 0 11.9303 0 11.9995C0 14.2151 0.600466 16.2905 1.64753 18.0718C3.67388 18.1362 5.70931 17.8598 7.66675 17.2417C11.3324 16.0842 14.5338 13.7886 16.8061 10.6881C18.4633 8.42704 19.5635 5.82375 20.0377 3.08901ZM21.9646 5.31104C21.3122 7.73593 20.2146 10.0349 18.7121 12.085C16.1428 15.5907 12.523 18.1863 8.37829 19.4951C6.76577 20.0043 5.10644 20.3084 3.43837 20.4078C5.6157 22.6245 8.64728 23.9995 12 23.9995C18.6274 23.9995 24 18.6269 24 11.9995C24 9.52323 23.25 7.22215 21.9646 5.31104ZM5.13336 9.21874C3.55307 9.71775 1.87772 9.80021 0.267555 9.4678C1.42235 4.09062 6.18003 0.0511979 11.8902 0C11.8901 2.05521 11.235 4.05691 10.0201 5.71459C8.80509 7.3724 7.09335 8.59984 5.13336 9.21874Z" fill="url(#paint0_linear_17604_1948)"/>
<defs>
<linearGradient id="paint0_linear_17604_1948" x1="12" y1="0" x2="12" y2="23.9995" gradientUnits="userSpaceOnUse">
<stop stop-color="#3655FD"/>
<stop offset="1" stop-color="#342FEE"/>
</linearGradient>
</defs>
</svg>
