<svg xmlns="http://www.w3.org/2000/svg" xmlns:xlink="http://www.w3.org/1999/xlink" fill="none" version="1.1" width="129" height="24" viewBox="0 0 129 24"><defs><linearGradient x1="0.5" y1="-3.0616171314629196e-17" x2="0.5" y2="1" id="master_svg0_0_797"><stop offset="0%" stop-color="#0A98FF" stop-opacity="1"/><stop offset="100%" stop-color="#0A98FF" stop-opacity="1"/></linearGradient></defs><g><g><path d="M38.946,15.60648828125L33.942,15.60648828125L33.114,18.00048828125L30.468,18.00048828125L34.986,5.41848828125L37.92,5.41848828125L42.438,18.00048828125L39.774,18.00048828125L38.946,15.60648828125ZM38.262,13.59048828125L36.444,8.33448828125L34.626,13.59048828125L38.262,13.59048828125ZM46.65,9.57648828125Q47.135999999999996,8.78448828125,47.919,8.33448828125Q48.702,7.88448828125,49.71,7.88448828125L49.71,10.53048828125L49.044,10.53048828125Q47.856,10.53048828125,47.253,11.08848828125Q46.65,11.64648828125,46.65,13.03248828125L46.65,18.00048828125L44.13,18.00048828125L44.13,8.02848828125L46.65,8.02848828125L46.65,9.57648828125ZM54.336,10.09848828125L54.336,14.92248828125Q54.336,15.42648828125,54.579,15.65148828125Q54.822,15.87648828125,55.397999999999996,15.87648828125L56.568,15.87648828125L56.568,18.00048828125L54.984,18.00048828125Q51.798,18.00048828125,51.798,14.90448828125L51.798,10.09848828125L50.61,10.09848828125L50.61,8.02848828125L51.798,8.02848828125L51.798,5.56248828125L54.336,5.56248828125L54.336,8.02848828125L56.568,8.02848828125L56.568,10.09848828125L54.336,10.09848828125ZM67.656,12.79848828125Q67.656,13.33848828125,67.584,13.77048828125L60.294,13.77048828125Q60.384,14.85048828125,61.05,15.46248828125Q61.716,16.07448828125,62.688,16.07448828125Q64.092,16.07448828125,64.686,14.86848828125L67.404,14.86848828125Q66.97200000000001,16.30848828125,65.74799999999999,17.23548828125Q64.524,18.16248828125,62.742,18.16248828125Q61.302,18.16248828125,60.159,17.52348828125Q59.016,16.88448828125,58.376999999999995,15.71448828125Q57.738,14.54448828125,57.738,13.01448828125Q57.738,11.46648828125,58.367999999999995,10.29648828125Q58.998000000000005,9.12648828125,60.132000000000005,8.49648828125Q61.266,7.86648828125,62.742,7.86648828125Q64.164,7.86648828125,65.289,8.47848828125Q66.414,9.09048828125,67.035,10.21548828125Q67.656,11.34048828125,67.656,12.79848828125ZM65.04599999999999,12.07848828125Q65.02799999999999,11.10648828125,64.344,10.52148828125Q63.66,9.93648828125,62.67,9.93648828125Q61.734,9.93648828125,61.095,10.50348828125Q60.456,11.07048828125,60.312,12.07848828125L65.04599999999999,12.07848828125ZM75,18.00048828125L72.94800000000001,14.90448828125L71.13,18.00048828125L68.43,18.00048828125L71.688,12.99648828125L68.394,8.02848828125L71.238,8.02848828125L73.27199999999999,11.10648828125L75.108,8.02848828125L77.80799999999999,8.02848828125L74.532,12.99648828125L77.844,18.00048828125L75,18.00048828125ZM83.55,18.12648828125Q82.23599999999999,18.12648828125,81.18299999999999,17.67648828125Q80.13,17.22648828125,79.518,16.38048828125Q78.906,15.53448828125,78.888,14.38248828125L81.588,14.38248828125Q81.642,15.15648828125,82.137,15.60648828125Q82.632,16.05648828125,83.49600000000001,16.05648828125Q84.378,16.05648828125,84.882,15.63348828125Q85.386,15.21048828125,85.386,14.52648828125Q85.386,13.96848828125,85.044,13.60848828125Q84.702,13.24848828125,84.189,13.04148828125Q83.676,12.83448828125,82.77600000000001,12.58248828125Q81.55199999999999,12.22248828125,80.787,11.87148828125Q80.02199999999999,11.52048828125,79.473,10.80948828125Q78.924,10.09848828125,78.924,8.91048828125Q78.924,7.79448828125,79.482,6.96648828125Q80.03999999999999,6.13848828125,81.048,5.69748828125Q82.056,5.25648828125,83.352,5.25648828125Q85.29599999999999,5.25648828125,86.511,6.20148828125Q87.726,7.14648828125,87.852,8.83848828125L85.08,8.83848828125Q85.044,8.19048828125,84.531,7.76748828125Q84.018,7.34448828125,83.172,7.34448828125Q82.434,7.34448828125,81.993,7.72248828125Q81.55199999999999,8.10048828125,81.55199999999999,8.82048828125Q81.55199999999999,9.32448828125,81.88499999999999,9.65748828125Q82.218,9.99048828125,82.713,10.19748828125Q83.208,10.40448828125,84.108,10.67448828125Q85.332,11.03448828125,86.106,11.39448828125Q86.88,11.75448828125,87.438,12.47448828125Q87.99600000000001,13.19448828125,87.99600000000001,14.36448828125Q87.99600000000001,15.37248828125,87.47399999999999,16.23648828125Q86.952,17.10048828125,85.944,17.61348828125Q84.936,18.12648828125,83.55,18.12648828125ZM103.998,8.02848828125L101.082,18.00048828125L98.364,18.00048828125L96.546,11.03448828125L94.728,18.00048828125L91.99199999999999,18.00048828125L89.05799999999999,8.02848828125L91.614,8.02848828125L93.378,15.62448828125L95.286,8.02848828125L97.95,8.02848828125L99.822,15.60648828125L101.586,8.02848828125L103.998,8.02848828125ZM104.718,12.97848828125Q104.718,11.46648828125,105.321,10.29648828125Q105.924,9.12648828125,106.959,8.49648828125Q107.994,7.86648828125,109.272,7.86648828125Q110.388,7.86648828125,111.225,8.31648828125Q112.062,8.76648828125,112.566,9.45048828125L112.566,8.02848828125L115.104,8.02848828125L115.104,18.00048828125L112.566,18.00048828125L112.566,16.54248828125Q112.08,17.24448828125,111.225,17.70348828125Q110.37,18.16248828125,109.254,18.16248828125Q107.994,18.16248828125,106.959,17.51448828125Q105.924,16.86648828125,105.321,15.68748828125Q104.718,14.50848828125,104.718,12.97848828125ZM112.566,13.01448828125Q112.566,12.09648828125,112.206,11.43948828125Q111.846,10.78248828125,111.234,10.43148828125Q110.622,10.08048828125,109.92,10.08048828125Q109.218,10.08048828125,108.624,10.42248828125Q108.03,10.76448828125,107.661,11.42148828125Q107.292,12.07848828125,107.292,12.97848828125Q107.292,13.87848828125,107.661,14.55348828125Q108.03,15.22848828125,108.633,15.58848828125Q109.236,15.94848828125,109.92,15.94848828125Q110.622,15.94848828125,111.234,15.59748828125Q111.846,15.24648828125,112.206,14.58948828125Q112.566,13.93248828125,112.566,13.01448828125ZM120.09,9.46848828125Q120.576,8.78448828125,121.431,8.32548828125Q122.286,7.86648828125,123.384,7.86648828125Q124.662,7.86648828125,125.697,8.49648828125Q126.732,9.12648828125,127.335,10.28748828125Q127.938,11.44848828125,127.938,12.97848828125Q127.938,14.50848828125,127.335,15.68748828125Q126.732,16.86648828125,125.697,17.51448828125Q124.662,18.16248828125,123.384,18.16248828125Q122.286,18.16248828125,121.449,17.71248828125Q120.612,17.26248828125,120.09,16.57848828125L120.09,22.75248828125L117.57,22.75248828125L117.57,8.02848828125L120.09,8.02848828125L120.09,9.46848828125ZM125.364,12.97848828125Q125.364,12.07848828125,124.995,11.42148828125Q124.626,10.76448828125,124.023,10.42248828125Q123.42,10.08048828125,122.718,10.08048828125Q122.034,10.08048828125,121.431,10.43148828125Q120.828,10.78248828125,120.459,11.44848828125Q120.09,12.11448828125,120.09,13.01448828125Q120.09,13.91448828125,120.459,14.58048828125Q120.828,15.24648828125,121.431,15.59748828125Q122.034,15.94848828125,122.718,15.94848828125Q123.42,15.94848828125,124.023,15.58848828125Q124.626,15.22848828125,124.995,14.56248828125Q125.364,13.89648828125,125.364,12.97848828125Z" fill="#FFFFFF" fill-opacity="1"/></g><g><path d="M14.2209,0.20681328125Q14.2158,0.49811228125,14.1967,0.78882328125Q14.1775,1.07953828125,14.1443,1.36897828125Q14.111,1.65840828125,14.0638,1.94589828125Q14.0165,2.23337828125,13.9553,2.51823828125Q13.8942,2.80308828125,13.8193,3.08463828125Q13.7444,3.36618828125,13.6559,3.64376828125Q13.5674,3.92134828125,13.4656,4.19430828125Q13.3638,4.46726828125,13.2488,4.73496828125Q13.1338,5.00266828125,13.006,5.26446828125Q12.8782,5.52627828125,12.7378,5.78156828125Q12.5974,6.03685828125,12.4448,6.28503828125Q12.2922,6.53321828125,12.1277,6.77369828125Q11.9633,7.01417828125,11.7873,7.24638828125Q11.6114,7.47860828125,11.4244,7.70200828125Q11.2374,7.92541828125,11.0397,8.13947828125Q10.8421,8.35354828125,10.6343,8.55776828125Q10.4265,8.76199828125,10.2091,8.95588828125Q9.99165,9.14978828125,9.76505,9.33290828125Q9.53845,9.51602828125,9.30323,9.68793828125Q9.068,9.85983828125,8.82472,10.02008828125Q8.58143,10.18038828125,8.33066,10.32868828125Q8.07988,10.47698828125,7.8222,10.61298828125Q7.56452,10.74888828125,7.30055,10.87218828125Q7.03658,10.99548828125,6.76693,11.10578828125Q6.49729,11.21608828125,6.22261,11.31318828125Q5.94793,11.41038828125,5.66886,11.49398828125Q5.38979,11.57768828125,5.10699,11.64768828125Q4.82418,11.71778828125,4.53832,11.77398828125Q4.25245,11.83018828125,3.96419,11.87248828125Q3.67594,11.91478828125,3.38597,11.94298828125Q3.096,11.97118828125,2.805,11.98538828125Q2.514,11.99948828125,2.22266,11.99948828125Q1.10255,11.99948828125,0.0017907,11.79218828125Q8.91356e-16,11.89588828125,0,11.99948828125Q0,12.79658828125,0.105416,13.58658828125Q0.210831,14.37668828125,0.41981,15.14578828125Q0.628789,15.91498828125,0.937661,16.64978828125Q1.24653,17.38448828125,1.64987,18.07198828125Q2.7121,18.10558828125,3.77095,18.01448828125Q4.82981,17.92348828125,5.87071,17.70898828125Q6.9116,17.49448828125,7.92021,17.15958828125Q8.92881,16.82468828125,9.89124,16.37388828125Q10.6957,15.99708828125,11.4593,15.54328828125Q12.2229,15.08948828125,12.9383,14.56298828125Q13.6538,14.03658828125,14.3142,13.44248828125Q14.9746,12.84838828125,15.5736,12.19248828125Q16.1726,11.53658828125,16.7044,10.82508828125Q17.2362,10.11358828125,17.6958,9.35340828125Q18.1553,8.59321828125,18.5381,7.79164828125Q18.9209,6.99008828125,19.2233,6.15485828125Q19.7653,4.65766828125,20.0373,3.08877828125Q19.4263,2.53759828125,18.7457,2.07499828125Q18.0651,1.61238828125,17.3277,1.24702828125Q16.5903,0.88167028125,15.8099,0.62039228125Q15.0296,0.35911528125,14.2209,0.20681328125ZM0.270017,9.46820828125Q1.03081,9.62509828125,1.80689,9.65850828125Q2.58297,9.69191828125,3.35443,9.60097828125Q4.12589,9.51003828125,4.87293,9.29709828125Q5.61997,9.08415828125,6.32343,8.75466828125Q6.75355,8.55320828125,7.16184,8.31055828125Q7.57014,8.06791828125,7.95268,7.78641828125Q8.33523,7.50491828125,8.68834,7.18727828125Q9.04146,6.86963828125,9.36173,6.51891828125Q9.68201,6.16819828125,9.96637,5.78777828125Q10.2507,5.40734828125,10.4964,5.00088828125Q10.7421,4.59442828125,10.9468,4.16583828125Q11.1515,3.73724828125,11.3132,3.29065828125Q11.5997,2.49935828125,11.7451,1.67046828125Q11.8906,0.84156928125,11.8906,0.000010426249999999988Q11.6376,0.00231699125,11.3849,0.01528458125Q11.1323,0.02825228125,10.8804,0.05185788125Q10.6285,0.07546348125,10.3778,0.10966528125Q10.1271,0.14386728125,9.8781,0.18860428125Q9.62909,0.23334128125,9.38218,0.28853328125Q9.13527,0.34372628125,8.89091,0.40927628125Q8.64655,0.47482728125,8.40517,0.55061828125Q8.16378,0.62641028125,7.92581,0.71230828125Q7.68784,0.79820628125,7.4537,0.89405828125Q7.21955,0.98991028125,6.98966,1.09554828125Q6.75977,1.20117828125,6.53453,1.31640828125Q6.30929,1.43163828125,6.08911,1.55626828125Q5.86893,1.68088828125,5.6542,1.81467828125Q5.43947,1.94846828125,5.23057,2.09118828125Q5.02167,2.23391828125,4.81897,2.38531828125Q4.61627,2.53671828125,4.42013,2.69652828125Q4.22399,2.85633828125,4.03476,3.02426828125Q3.84553,3.19220828125,3.66355,3.36796828125Q3.48157,3.54372828125,3.30715,3.72700828125Q3.13274,3.91027828125,2.96621,4.10074828125Q2.79967,4.29120828125,2.64132,4.48851828125Q2.48296,4.68583828125,2.33306,4.88964828125Q2.18316,5.09345828125,2.04198,5.30340828125Q1.9008,5.51335828125,1.7686,5.72906828125Q1.6364,5.94478828125,1.5134,6.16587828125Q1.39041,6.38696828125,1.27685,6.61305828125Q1.16328,6.83913828125,1.05935,7.06979828125Q0.95541,7.30046828125,0.861289,7.53530828125Q0.767168,7.77015828125,0.683029,8.00875828125Q0.59889,8.24735828125,0.524883,8.48928828125Q0.450875,8.73122828125,0.38713,8.97606828125Q0.323386,9.22090828125,0.270017,9.46820828125ZM3.43845,20.40778828125Q3.83658,20.38408828125,4.23348,20.34488828125Q4.63039,20.30558828125,5.02546,20.25088828125Q5.42053,20.19618828125,5.81316,20.12618828125Q6.2058,20.05608828125,6.59541,19.97078828125Q6.98501,19.88548828125,7.37099,19.78498828125Q7.75697,19.68458828125,8.13874,19.56908828125Q8.52051,19.45368828125,8.89749,19.32348828125Q9.27447,19.19318828125,9.64608,19.04838828125Q10.0177,18.90358828125,10.3834,18.74428828125Q10.749,18.58508828125,11.1082,18.41178828125Q11.4674,18.23838828125,11.8196,18.05118828125Q12.1717,17.86388828125,12.5163,17.66308828125Q12.8609,17.46228828125,13.1974,17.24808828125Q13.5339,17.03398828125,13.8618,16.80698828125Q14.1897,16.57988828125,14.5084,16.34018828125Q14.8272,16.10048828125,15.1364,15.84848828125Q15.4456,15.59658828125,15.7447,15.33278828125Q16.0438,15.06898828125,16.3325,14.79368828125Q16.6211,14.51838828125,16.8987,14.23208828125Q17.1764,13.94578828125,17.4426,13.64878828125Q17.7089,13.35188828125,17.9634,13.04478828125Q18.2179,12.73768828125,18.4602,12.42088828125Q18.7025,12.10418828125,18.9323,11.77818828125Q19.1621,11.45218828125,19.379,11.11738828125Q19.5959,10.78268828125,19.7995,10.43978828125Q20.0032,10.09688828125,20.1934,9.74630828125Q20.3835,9.39570828125,20.5598,9.03795828125Q20.7362,8.68021828125,20.8984,8.31586828125Q21.0606,7.95151828125,21.2085,7.58110828125Q21.3564,7.21070828125,21.4898,6.83481828125Q21.6231,6.45893828125,21.7417,6.07812828125Q21.8603,5.69732828125,21.9639,5.31219828125Q22.4589,6.04974828125,22.84,6.85214828125Q23.221,7.65454828125,23.4797,8.50430828125Q23.7384,9.35405828125,23.8692,10.23268828125Q24,11.11128828125,24,11.99948828125Q24,12.29408828125,23.9855,12.58828828125Q23.9711,12.88258828125,23.9422,13.17568828125Q23.9133,13.46888828125,23.8701,13.76028828125Q23.8269,14.05168828125,23.7694,14.34058828125Q23.712,14.62948828125,23.6404,14.91528828125Q23.5688,15.20098828125,23.4833,15.48288828125Q23.3978,15.76478828125,23.2985,16.04218828125Q23.1993,16.31958828125,23.0866,16.59168828125Q22.9738,16.86388828125,22.8479,17.13018828125Q22.7219,17.39648828125,22.5831,17.65628828125Q22.4442,17.91608828125,22.2927,18.16878828125Q22.1413,18.42138828125,21.9776,18.66638828125Q21.814,18.91128828125,21.6385,19.14788828125Q21.463,19.38448828125,21.2761,19.61218828125Q21.0892,19.83998828125,20.8914,20.05818828125Q20.6936,20.27648828125,20.4853,20.48478828125Q20.277,20.69308828125,20.0587,20.89088828125Q19.8404,21.08878828125,19.6127,21.27558828125Q19.385,21.46248828125,19.1484,21.63798828125Q18.9118,21.81348828125,18.6668,21.97718828125Q18.4219,22.14078828125,18.1692,22.29228828125Q17.9166,22.44368828125,17.6568,22.58258828125Q17.397,22.72138828125,17.1307,22.84738828125Q16.8644,22.97328828125,16.5922,23.08608828125Q16.32,23.19878828125,16.0427,23.29798828125Q15.7653,23.39728828125,15.4834,23.48278828125Q15.2015,23.56828828125,14.9158,23.63988828125Q14.63,23.71148828125,14.3411,23.76888828125Q14.0522,23.82638828125,13.7608,23.86958828125Q13.4694,23.91288828125,13.1762,23.94168828125Q12.883,23.97058828125,12.5888,23.98508828125Q12.2946,23.99948828125,12,23.99948828125Q11.4037,23.99948828125,10.8103,23.94038828125Q10.2169,23.88128828125,9.63235,23.76358828125Q9.04777,23.64598828125,8.47772,23.47088828125Q7.90768,23.29588828125,7.35779,23.06518828125Q6.80791,22.83448828125,6.28361,22.55048828125Q5.7593,22.26638828125,5.26574,21.93178828125Q4.77218,21.59708828125,4.31423,21.21518828125Q3.85628,20.83328828125,3.43845,20.40778828125Z" fill-rule="evenodd" fill="url(#master_svg0_0_797)" fill-opacity="1"/></g></g></svg>