<svg width="152" height="36" viewBox="0 0 152 36" fill="none" xmlns="http://www.w3.org/2000/svg">
<mask id="mask0_11943_20107" style="mask-type:alpha" maskUnits="userSpaceOnUse" x="0" y="0" width="36" height="36">
<rect x="0.651367" y="0.633789" width="35.1197" height="35.1197" fill="#AAAAAA"/>
</mask>
<g mask="url(#mask0_11943_20107)">
<mask id="mask1_11943_20107" style="mask-type:alpha" maskUnits="userSpaceOnUse" x="2" y="3" width="33" height="28">
<path d="M18.2369 3.52246L34.0923 30.9847H2.38154L18.2369 3.52246Z" fill="#959595"/>
</mask>
<g mask="url(#mask1_11943_20107)">
<rect x="16.9053" y="5.65527" width="3.04171" height="30.3282" transform="rotate(30 16.9053 5.65527)" fill="white"/>
<rect width="3.04171" height="30.1507" transform="matrix(-0.866025 0.5 0.5 0.866025 19.5024 5.70117)" fill="white"/>
<rect x="16.9683" y="5.69727" width="2.53777" height="2.3565" fill="white"/>
<mask id="mask2_11943_20107" style="mask-type:alpha" maskUnits="userSpaceOnUse" x="9" y="20" width="12" height="12">
<path d="M14.9742 20.7441L20.9395 31.0765H9.00878L14.9742 20.7441Z" fill="#AFAFAF"/>
</mask>
<g mask="url(#mask2_11943_20107)">
<rect x="16.6201" y="12.4307" width="3.04171" height="22.5059" transform="rotate(30 16.6201 12.4307)" fill="#286DF9"/>
<rect width="3.04171" height="13.4232" transform="matrix(-0.866025 0.5 0.5 0.866025 14.9316 20.5107)" fill="white"/>
<rect x="15.1328" y="20.2842" width="3.04171" height="13.6842" transform="rotate(30 15.1328 20.2842)" fill="white"/>
</g>
<path d="M18.2329 15.041L16.4658 18.0916L16.5071 18.1592L16.5898 18.2944L16.7551 18.5648L17.9684 20.6663L20.395 24.8694L25.2483 33.2754L27.8825 31.7545L23.0292 23.3485L20.6026 19.1455L19.3893 17.044L18.7827 15.9932L18.4793 15.4679L18.3277 15.2052L18.2518 15.0738L18.2329 15.041Z" fill="white"/>
</g>
</g>
<path d="M148.755 22.7309C148.755 22.3446 148.695 22.0013 148.575 21.7008C148.463 21.4004 148.262 21.1257 147.97 20.8767C147.678 20.6278 147.266 20.3874 146.734 20.1556C146.21 19.9152 145.54 19.6706 144.725 19.4216C143.832 19.1469 143.008 18.8422 142.252 18.5074C141.506 18.164 140.853 17.7691 140.295 17.3227C139.737 16.8678 139.304 16.3484 138.995 15.7647C138.686 15.1723 138.531 14.4899 138.531 13.7173C138.531 12.9532 138.69 12.2579 139.008 11.6312C139.334 11.0046 139.793 10.4638 140.385 10.0088C140.986 9.54522 141.694 9.18896 142.51 8.94001C143.326 8.68248 144.227 8.55371 145.214 8.55371C146.605 8.55371 147.802 8.81124 148.807 9.32631C149.82 9.84138 150.597 10.5324 151.137 11.3995C151.687 12.2665 151.961 13.2237 151.961 14.271H148.755C148.755 13.6529 148.622 13.1078 148.356 12.6356C148.098 12.1549 147.704 11.7772 147.171 11.5025C146.648 11.2278 145.982 11.0904 145.175 11.0904C144.411 11.0904 143.776 11.2063 143.27 11.4381C142.763 11.6699 142.386 11.9832 142.137 12.3781C141.888 12.773 141.763 13.2194 141.763 13.7173C141.763 14.0692 141.845 14.3911 142.008 14.683C142.171 14.9663 142.42 15.2324 142.755 15.4814C143.089 15.7217 143.51 15.9492 144.017 16.1638C144.523 16.3784 145.12 16.5845 145.806 16.7819C146.845 17.091 147.751 17.4343 148.523 17.812C149.296 18.1812 149.94 18.6018 150.455 19.074C150.97 19.5461 151.356 20.0826 151.614 20.6836C151.871 21.2759 152 21.9498 152 22.7052C152 23.495 151.841 24.2075 151.524 24.8427C151.206 25.4694 150.751 26.0059 150.159 26.4523C149.575 26.8901 148.871 27.2292 148.047 27.4696C147.231 27.7013 146.322 27.8172 145.317 27.8172C144.416 27.8172 143.527 27.6971 142.652 27.4567C141.785 27.2163 140.995 26.8515 140.282 26.3622C139.57 25.8643 139.003 25.2462 138.583 24.5079C138.162 23.7611 137.952 22.8898 137.952 21.894H141.184C141.184 22.5035 141.287 23.0228 141.493 23.452C141.707 23.8813 142.004 24.2332 142.381 24.5079C142.759 24.774 143.197 24.9715 143.695 25.1003C144.201 25.229 144.742 25.2934 145.317 25.2934C146.073 25.2934 146.704 25.1861 147.21 24.9715C147.725 24.7569 148.111 24.4564 148.369 24.0701C148.626 23.6838 148.755 23.2374 148.755 22.7309Z" fill="white"/>
<path d="M134.874 8.81152V27.56H131.642V8.81152H134.874Z" fill="white"/>
<path d="M109.662 8.81152H112.546L117.967 23.272L123.375 8.81152H126.26L119.1 27.56H116.808L109.662 8.81152ZM108.348 8.81152H111.091L111.567 21.3277V27.56H108.348V8.81152ZM124.83 8.81152H127.586V27.56H124.354V21.3277L124.83 8.81152Z" fill="white"/>
<path d="M105.708 24.9975V27.56H95.7548V24.9975H105.708ZM96.6691 8.81152V27.56H93.437V8.81152H96.6691ZM104.408 16.6405V19.1644H95.7548V16.6405H104.408ZM105.644 8.81152V11.3869H95.7548V8.81152H105.644Z" fill="white"/>
<path d="M85.0795 8.81152V27.56H81.8732V8.81152H85.0795ZM90.9641 8.81152V11.3869H76.04V8.81152H90.9641Z" fill="white"/>
<path d="M61.6313 8.81152H68.2628C69.6879 8.81152 70.9026 9.02613 71.9069 9.45536C72.9113 9.88458 73.6796 10.5198 74.2119 11.3611C74.7527 12.1938 75.0231 13.2239 75.0231 14.4515C75.0231 15.3872 74.8514 16.2113 74.508 16.9238C74.1647 17.6363 73.6796 18.2373 73.053 18.7266C72.4263 19.2073 71.6795 19.5807 70.8124 19.8468L69.8338 20.3233H63.8719L63.8461 17.7608H68.3143C69.087 17.7608 69.7308 17.6235 70.2459 17.3488C70.7609 17.0741 71.1472 16.7006 71.4048 16.2285C71.6709 15.7478 71.8039 15.2069 71.8039 14.606C71.8039 13.9536 71.6752 13.387 71.4176 12.9063C71.1687 12.417 70.7824 12.0436 70.2587 11.786C69.7351 11.5199 69.0698 11.3869 68.2628 11.3869H64.8634V27.56H61.6313V8.81152ZM72.3319 27.56L67.928 19.1386L71.3146 19.1257L75.7828 27.3926V27.56H72.3319Z" fill="white"/>
<path d="M51.4459 11.3096L45.8446 27.56H42.458L49.5144 8.81152H51.6777L51.4459 11.3096ZM56.133 27.56L50.5188 11.3096L50.2742 8.81152H52.4503L59.5325 27.56H56.133ZM55.8626 20.6066V23.169H45.6643V20.6066H55.8626Z" fill="white"/>
</svg>
